<svg xmlns="http://www.w3.org/2000/svg" xmlns:xlink="http://www.w3.org/1999/xlink" width="500" zoomAndPan="magnify" viewBox="0 0 375 374.999991" height="500" preserveAspectRatio="xMidYMid meet" version="1.0"><defs><clipPath id="54c32b9e5b"><path d="M 133 7.191406 L 368.792969 7.191406 L 368.792969 243 L 133 243 Z M 133 7.191406 " clip-rule="nonzero"/></clipPath><clipPath id="8862ea2b6a"><path d="M 6.542969 132 L 242 132 L 242 367.941406 L 6.542969 367.941406 Z M 6.542969 132 " clip-rule="nonzero"/></clipPath></defs><g clip-path="url(#54c32b9e5b)"><path fill="#90ddf6" d="M 368.351562 187.84375 C 368.351562 217.816406 344.09375 242.078125 314.117188 242.078125 L 203.042969 242.078125 C 164.644531 242.078125 133.46875 210.898438 133.46875 172.503906 L 133.46875 61.425781 C 133.46875 31.453125 157.730469 7.191406 187.703125 7.191406 C 217.679688 7.191406 241.9375 31.453125 241.9375 61.425781 L 241.9375 133.605469 L 314.117188 133.605469 C 344.09375 133.605469 368.351562 157.96875 368.351562 187.84375 Z M 368.351562 187.84375 " fill-opacity="1" fill-rule="nonzero"/></g><g clip-path="url(#8862ea2b6a)"><path fill="#97ddc8" d="M 6.652344 187.140625 C 6.652344 157.164062 30.914062 132.90625 60.886719 132.90625 L 171.964844 132.90625 C 210.359375 132.90625 241.539062 164.082031 241.539062 202.480469 L 241.539062 313.554688 C 241.539062 343.53125 217.277344 367.789062 187.300781 367.789062 C 157.328125 367.789062 133.066406 343.53125 133.066406 313.554688 L 133.066406 241.375 L 60.886719 241.375 C 30.914062 241.375 6.652344 217.113281 6.652344 187.140625 Z M 6.652344 187.140625 " fill-opacity="1" fill-rule="nonzero"/></g><path fill="#1d676e" d="M 241.539062 202.480469 L 241.539062 242.078125 L 203.042969 242.078125 C 164.644531 242.078125 133.46875 210.898438 133.46875 172.503906 L 133.46875 132.90625 L 171.964844 132.90625 C 210.359375 132.90625 241.539062 164.082031 241.539062 202.480469 Z M 241.539062 202.480469 " fill-opacity="1" fill-rule="nonzero"/></svg>